<svg xmlns="http://www.w3.org/2000/svg" viewBox="0 0 16 16" fill="none" shape-rendering="crispEdges"><metadata xmlns:rdf="http://www.w3.org/1999/02/22-rdf-syntax-ns#" xmlns:xsi="http://www.w3.org/2001/XMLSchema-instance" xmlns:dc="http://purl.org/dc/elements/1.1/" xmlns:dcterms="http://purl.org/dc/terms/"><rdf:RDF><rdf:Description><dc:title>Pixel Art</dc:title><dc:creator>DiceBear</dc:creator><dc:source xsi:type="dcterms:URI">https://www.figma.com/community/file/1198754108850888330</dc:source><dcterms:license xsi:type="dcterms:URI">https://creativecommons.org/publicdomain/zero/1.0/</dcterms:license><dc:rights>„Pixel Art” (https://www.figma.com/community/file/1198754108850888330) by „DiceBear”, licensed under „CC0 1.0” (https://creativecommons.org/publicdomain/zero/1.0/)</dc:rights></rdf:Description></rdf:RDF></metadata><mask id="viewboxMask"><rect width="16" height="16" rx="0" ry="0" x="0" y="0" fill="#fff" /></mask><g mask="url(#viewboxMask)"><path d="M4 2h8v1h1v3h1v2h-1v3h-1v1H9v1h4v1h1v2H2v-2h1v-1h4v-1H4v-1H3V8H2V6h1V3h1V2Z" fill="#e0b687"/><path d="M4 2h8v1h1v3h1v2h-1v3h-1v1H4v-1H3V8H2V6h1V3h1V2Z" fill="#fff" fill-opacity=".1"/><path d="M4 13h1v1h6v-1h1v3H4v-3Z" fill="#00b159"/><path fill="#fff" fill-opacity=".3" d="M9 15h2v1H9z"/><path fill="#fff" d="M4 5h3v2H4zM9 5h3v2H9z"/><path fill="#876658" d="M11 6h1v1h-1zM6 6h1v1H6z"/><path fill-rule="evenodd" clip-rule="evenodd" d="M14 5H2v1h1v2h4V7h2v1h4V6h1V5Zm-2 1H9v1h3V6ZM7 7H4V6h3v1Z" fill="#191919"/><path fill="#000" fill-opacity=".3" d="M4 6h3v1H4z"/><path fill="#fff" fill-opacity=".2" d="M2 5h1v1H2zM7 5h2v1H7zM13 5h1v1h-1z"/><path fill="#000" fill-opacity=".3" d="M9 6h3v1H9z"/><path d="M7 9v2h2V9H7Z" fill="#e35d6a"/><path d="M3 2h10v1h1v3h-1V4H3v2H2V3h1V2ZM13 8h1v1h1v2h-1v-1h-1V8ZM15 11h1v1h-1v-1Z" fill="#a78961"/></g></svg>